# xmcd CD database file
#
# Track frame offsets:
#	150
#	34693
#	61877
#	96520
#	117207
#	137047
#	164435
#	193689
#	221258
#	257061
#	280822
#
# Disc length: 4001 seconds
#
# Revision: 0
# Processed by: cddbd v1.5.2PL0 Copyright (c) Steve Scherf et al.
# Submitted via: CDex 1.51
#
DISCID=9f0f9f0b
DTITLE=Don Lerman Quintet - The Zoot Side of Life
DYEAR=2006
DGENRE=Jazz
TTITLE0=Al Aboard
TTITLE1=Newk Joint
TTITLE2=Theme for a Made-For-TV movie
TTITLE3=Zoot Side Of Life
TTITLE4=To You
TTITLE5=Brooksmobile
TTITLE6=Rub-I-Con
TTITLE7=Picnic
TTITLE8=Glad You Came
TTITLE9=The Claw
TTITLE10=Ghost Of A Chance
EXTD=YEAR: 2006
EXTT0=
EXTT1=
EXTT2=
EXTT3=
EXTT4=
EXTT5=
EXTT6=
EXTT7=
EXTT8=
EXTT9=
EXTT10=
PLAYORDER=
